<svg width="32" height="32" viewBox="0 0 32 32" fill="none" xmlns="http://www.w3.org/2000/svg">
<path d="M9.74848 15.3436L2.93045 4.03341C2.76016 3.75092 2.9636 3.39075 3.29344 3.39075H9.72137C10.0185 3.39075 10.2939 3.54632 10.4473 3.80079L17.4056 15.3436C17.649 15.7474 17.649 16.2527 17.4056 16.6565L10.4473 28.1992C10.2939 28.4537 10.0185 28.6093 9.72137 28.6093H3.29344C2.9636 28.6093 2.76016 28.2491 2.93045 27.9666L9.74848 16.6565C9.99189 16.2527 9.99189 15.7474 9.74848 15.3436Z" fill="#007AFF"/>
<path d="M21.4041 15.3436L14.5861 4.03341C14.4158 3.75092 14.6192 3.39075 14.9491 3.39075H21.377C21.6741 3.39075 21.9496 3.54632 22.103 3.80079L29.0612 15.3436C29.3046 15.7474 29.3046 16.2527 29.0612 16.6565L22.103 28.1992C21.9496 28.4537 21.6741 28.6093 21.377 28.6093H14.9491C14.6192 28.6093 14.4158 28.2491 14.5861 27.9666L21.4041 16.6565C21.6475 16.2527 21.6475 15.7474 21.4041 15.3436Z" fill="#007AFF"/>
</svg>
